{
  "accessors": [
    {
      "bufferView": 2,
      "componentType": 5126,
      "count": 144,
      "max": [
        1.1223615407943726,
        0.12438993155956268,
        3.655853271484375
      ],
      "min": [
        -2.3674666881561279,
        -0.1243901327252388,
        0.0099999941885471344
      ],
      "type": "VEC3"
    },
    {
      "bufferView": 2,
      "byteOffset": 1728,
      "componentType": 5126,
      "count": 144,
      "max": [
        1,
        1,
        1
      ],
      "min": [
        -1,
        -1,
        -1
      ],
      "type": "VEC3"
    },
    {
      "bufferView": 1,
      "componentType": 5126,
      "count": 144,
      "max": [
        0.93202054500579834,
        0.97856438159942627
      ],
      "min": [
        0.02222752571105957,
        0.028208225965499878
      ],
      "type": "VEC2"
    },
    {
      "bufferView": 0,
      "componentType": 5125,
      "count": 246,
      "max": [
        143
      ],
      "min": [
        0
      ],
      "type": "SCALAR"
    },
    {
      "bufferView": 2,
      "byteOffset": 3456,
      "componentType": 5126,
      "count": 8,
      "max": [
        0.60901063680648804,
        -0.04359012097120285,
        3.3438634872436523
      ],
      "min": [
        -2.0947227478027344,
        -0.043591082096099854,
        0.56630873680114746
      ],
      "type": "VEC3"
    },
    {
      "bufferView": 2,
      "byteOffset": 3552,
      "componentType": 5126,
      "count": 8,
      "max": [
        -3.276842619470699e-07,
        1,
        -3.8938708257774124e-08
      ],
      "min": [
        -3.276842619470699e-07,
        1,
        -3.8938708257774124e-08
      ],
      "type": "VEC3"
    },
    {
      "bufferView": 1,
      "byteOffset": 1152,
      "componentType": 5126,
      "count": 8,
      "max": [
        0.88966608047485352,
        0.90058815479278564
      ],
      "min": [
        0.4698011577129364,
        0.46925938129425049
      ],
      "type": "VEC2"
    },
    {
      "bufferView": 0,
      "byteOffset": 984,
      "componentType": 5125,
      "count": 18,
      "max": [
        7
      ],
      "min": [
        0
      ],
      "type": "SCALAR"
    }
  ],
  "asset": {
    "extras": {
      "author": "Rock.YT (https://sketchfab.com/Rock.YT)",
      "license": "CC-BY-4.0 (http://creativecommons.org/licenses/by/4.0/)",
      "source": "https://sketchfab.com/3d-models/twitch-logo-72de85deef854394abef48cf9ad070e6",
      "title": "Twitch Logo"
    },
    "generator": "Sketchfab-8.98.0",
    "version": "2.0"
  },
  "bufferViews": [
    {
      "buffer": 0,
      "byteLength": 1056,
      "byteOffset": 0,
      "name": "floatBufferViews",
      "target": 34963
    },
    {
      "buffer": 0,
      "byteLength": 1216,
      "byteOffset": 1056,
      "byteStride": 8,
      "name": "floatBufferViews",
      "target": 34962
    },
    {
      "buffer": 0,
      "byteLength": 3648,
      "byteOffset": 2272,
      "byteStride": 12,
      "name": "floatBufferViews",
      "target": 34962
    }
  ],
  "buffers": [
    {
      "byteLength": 5920,
      "uri": "scene.bin"
    }
  ],
  "materials": [
    {
      "doubleSided": true,
      "emissiveFactor": [
        0,
        0,
        0
      ],
      "name": "Viola",
      "pbrMetallicRoughness": {
        "baseColorFactor": [
          0.28314899999999998,
          0.063009999999999997,
          1,
          1
        ],
        "metallicFactor": 0,
        "roughnessFactor": 0.9482613138608299
      }
    },
    {
      "doubleSided": true,
      "emissiveFactor": [
        0,
        0,
        0
      ],
      "name": "Bianco",
      "pbrMetallicRoughness": {
        "baseColorFactor": [
          1,
          1,
          1,
          1
        ],
        "metallicFactor": 0,
        "roughnessFactor": 0.70845240525773501
      }
    }
  ],
  "meshes": [
    {
      "name": "Twitch_logo_Viola_0",
      "primitives": [
        {
          "attributes": {
            "NORMAL": 1,
            "POSITION": 0,
            "TEXCOORD_0": 2
          },
          "indices": 3,
          "material": 0,
          "mode": 4
        }
      ]
    },
    {
      "name": "Twitch_logo_Bianco_0",
      "primitives": [
        {
          "attributes": {
            "NORMAL": 5,
            "POSITION": 4,
            "TEXCOORD_0": 6
          },
          "indices": 7,
          "material": 1,
          "mode": 4
        }
      ]
    }
  ],
  "nodes": [
    {
      "children": [
        1
      ],
      "name": "RootNode (gltf orientation matrix)",
      "rotation": [
        -0.70710678118654746,
        -0,
        -0,
        0.70710678118654757
      ]
    },
    {
      "children": [
        2
      ],
      "matrix": [
        1,
        0,
        0,
        0,
        0,
        1,
        0,
        0,
        0,
        0,
        1,
        0,
        2.6290081223123707e-13,
        3.5157449929101858e-06,
        2.8421709430404007e-14,
        1
      ],
      "name": "RootNode (model correction matrix)"
    },
    {
      "children": [
        3
      ],
      "matrix": [
        1,
        0,
        0,
        0,
        0,
        0,
        1,
        0,
        0,
        -1,
        0,
        0,
        0,
        0,
        0,
        1
      ],
      "name": "64fa5623d00d4cb4bf0387d7401fb30f.fbx"
    },
    {
      "children": [
        4
      ],
      "name": "RootNode"
    },
    {
      "children": [
        5,
        6
      ],
      "matrix": [
        -99.999999999998849,
        1.2246465878873718e-14,
        -1.5099579909783704e-05,
        0,
        -1.509957990978366e-05,
        7.5497899931775692e-06,
        99.999999999998565,
        0,
        1.1522330358069753e-12,
        99.999999999999702,
        -7.5497899709731087e-06,
        0,
        0,
        0,
        0,
        1
      ],
      "name": "Twitch_logo"
    },
    {
      "mesh": 0,
      "name": "Twitch_logo_Viola_0"
    },
    {
      "mesh": 1,
      "name": "Twitch_logo_Bianco_0"
    }
  ],
  "scene": 0,
  "scenes": [
    {
      "name": "OSG_Scene",
      "nodes": [
        0
      ]
    }
  ]
}

